<svg t="1725344361089" class="icon" viewBox="0 0 1024 1024" version="1.1" xmlns="http://www.w3.org/2000/svg" p-id="4422" width="128" height="128"><path d="M510.976 1007.616c-274.022 0-496.026-222.003-496.026-495.82 0-274.023 222.004-496.026 496.026-496.026 273.818 0 496.026 222.003 496.026 496.025-0.205 273.818-222.208 495.821-496.026 495.821z m104.653-264.397c124.313 0 225.075-110.797 225.075-247.603S739.942 248.013 615.629 248.013H465.51v495.206H615.63z m-405.3 0c99.533 0 180.225-78.233 180.225-174.694V248.013h-60.007V568.32c0 64.307-53.657 116.531-120.013 116.531h-30.31v58.163h30.106v0.205z m0 0" fill="#d81e06" p-id="4423"></path><path d="M615.629 306.176h-90.112v378.675h90.112c91.136 0 165.069-84.787 165.069-189.235s-73.728-189.44-165.07-189.44z m0 0" fill="#d81e06" p-id="4424"></path></svg>