<svg t="1725345414257" class="icon" viewBox="0 0 1024 1024" version="1.1" xmlns="http://www.w3.org/2000/svg" p-id="5807" width="128" height="128"><path d="M512 0c282.72 0 512 229.2 512 512S794.8 1024 512 1024 0 794.8 0 512 229.28 0 512 0zM315.52 187.568v264.4l189.44-130.912-189.44-133.488zM118.768 315.456v3.36c18.768 13.52 37.6 26.928 56.256 40.56 31.68 23.28 63.392 46.528 95.104 69.76 10.048 7.376 20.192 14.656 31.024 22.496V188.368c-0.96 0.336-1.92 0.752-2.8 1.248a44570.272 44570.272 0 0 0-85.008 60.16c-21.072 14.928-42 30.08-63.152 44.88-10.288 7.2-20.944 13.904-31.424 20.8z m0 19.792l0.08 260.512c8.32-5.28 16.912-10.208 24.88-15.968 44.208-32.064 88.368-64.208 132.496-96.4 7.728-5.648 15.264-11.536 23.552-17.808-22.624-16.528-44.08-32.224-65.568-47.888-27.2-19.808-54.336-39.68-81.632-59.328-11.12-7.904-22.56-15.424-33.808-23.12zM301.28 740.8l0.096-262.576c-1.696 0.864-2.592 1.248-3.392 1.808l-115.76 81.12-63.44 44.464v1.68L301.28 740.8z m14.08-263.152v263.36l180.544-131.712-180.544-131.648z m190.944 406.72l-0.016-265.088-186.448 131.456c11.232 7.84 20.784 14.352 30.16 21.12 39.616 28.464 79.12 56.992 118.56 85.6 12.128 8.8 24.048 17.92 36.048 26.912h1.696z m-4.16-317.936l-0.08-0.064c7.408-5.76 15.84-9.04 18.336-14.56 4.784-11.792 6.592-24.848 8.992-37.488 2.16-11.792 1.808-11.824 13.52-10.704 2.384 0.208 4.8 0 7.584 0l11.328 64.032c7.456-6.752 16-10.832 18.016-17.056 3.84-11.84 4.32-24.88 5.44-37.488 0.48-5.28 1.344-7.776 7.392-8 8-0.4 15.888-2.176 24.32-3.392-1.888-5.488-3.84-10.208-5.056-15.104-1.776-7.136-5.68-10.768-13.312-11.264-5.072-0.384-10.048-2.368-15.536-3.76 1.072-2.768 1.792-4.208 2.192-5.728 1.712-6.496 1.664-15.264 5.52-18.88 3.84-3.648 12.32-2.4 19.44-3.392-2.208-6.4-4-12.864-6.752-18.88a9.6 9.6 0 0 0-6.496-4.96c-7.152-0.64-14.4-0.24-23.376-0.24l29.504-23.408-33.696-25.824c-5.584 13.392-10.656 24.896-15.2 36.608-4.096 10.512-10.864 14.72-23.072 13.424l9.52-29.344-46.992-19.744 16.64 48.224-19.968 3.712c-0.928-12.624-0.928-12.624-15.2-14.16l-15.056-39.392c-6.08 12.56-10.976 23.248-16.48 33.632-1.808 3.264-4.48 5.984-7.712 7.84-4.304 2.432-9.184 3.616-14.448 5.552 1.264 1.904 1.76 2.8 2.4 3.584 5.968 7.296 6 19.456 17.952 21.968 0.672 0.16 1.344 1.776 1.44 2.768 0.736 7.2 1.312 14.4 1.936 21.568l-25.776 4.192 11.936 39.888 12.928-10.848 3.904 31.504-25.008 7.68 40.256 28.352c2.848-23.648 5.424-45.872 8.448-68 0.48-3.632 3.04-7.024 4.64-10.4l2.8-0.48c0.32 12.72 7.136 17.872 20.416 16.752v8.448c-0.8 1.6-1.424 3.248-1.872 4.96h1.856c-0.032 12.176-0.048 24 0.112 35.84 0.032 3.408 1.264 6.816 2.304 12.032z m118.832 243.68l82.544-59.904-185.712-130.352v264.512h1.696c1.792-1.52 3.472-3.168 5.376-4.544 32.016-23.248 64.048-46.48 96.096-69.712z m88.64-68.928V475.824l-182.352 134.368 182.352 130.992z m0.672-288.464V186.944L516.96 321.728l193.328 130.992z m195.04 156.32l-0.016-3.392a14.576 14.576 0 0 1-3.68-1.296c-18.304-12.768-36.56-25.6-54.768-38.496-23.264-16.48-46.432-33.136-69.744-49.584-18.368-12.96-36.88-25.728-56.112-39.12V740.64l184.32-131.616z m0-13.216V333.68c-2.064 1.232-4.224 2.336-6.176 3.728-29.44 21.248-58.848 42.56-88.256 63.968-28.928 20.992-57.84 42.048-87.456 63.6 22.512 16.4 44.48 32.4 66.448 48.432 27.808 20.336 55.52 40.848 83.456 61.024 10.4 7.52 21.312 14.288 31.984 21.392zM823.52 378.032l-0.064-0.064c27.264-19.728 54.56-39.424 81.856-59.056v-1.696c-18.928-13.264-37.92-26.48-56.8-39.808-25.072-17.76-49.984-35.616-75.104-53.264-17.072-11.968-34.368-23.616-52.208-35.872v263.104c3.44-2.288 6.128-3.92 8.672-5.76 31.232-22.512 62.448-45.056 93.648-67.584z m-57.072-98.72c-7.984-3.008-12.864-9.52-12.848-20.032 9.216 1.056 19.168-3.088 24.64 7.248 2.064 3.904 2.56 8.608 3.744 12.944-5.216 0.048-10.976 1.536-15.536-0.16z m-339.744 5.76c1.984 1.008 3.792 6.16 3.024 8.32-2.032 4.576-5.504 8.512-8.8 12.4-0.528 0.64-2.928-0.288-5.28-0.592v40.736c-0.032 11.376-1.2 12.512-12.704 12.512-15.088 0-30.176-0.272-45.248 0-7.024 0.128-9.856-2.64-9.728-9.68 0.192-14.496 0-28.992 0-44.208l-4.672 2.24c-1.76-2.672-3.488-5.376-5.28-8.032-7.296-10.816-7.376-10.976 4.16-16.448 8.16-3.856 16.576-7.2 26-11.232 2 8.272 4.944 12.96 12.736 13.2 8.448 0.256 11.648-5.232 14.816-13.152 10.688 4.672 21.04 8.864 30.976 13.92z m358.944-2.992c21.44 0.624 41.792 20.432 38.8 39.776 2.032 22.784-17.488 41.92-40.448 41.6a41.536 41.536 0 0 1-40.416-41.808c0.16-20.992 19.04-40.256 42.064-39.568z m105.52 177.024c-0.048 3.712-0.288 7.408-0.064 11.232 0.176 4.464 2.64 10.544 0.592 13.024-4.352 5.28-9.952 1.056-14.272-2.064-2.816-2.048-4.88-5.152-7.504-8-8.064 5.52-15.744 10.384-22.848 15.968-1.472 1.152-1.008 4.976-1.152 7.6-0.144 2.992 0 6 0 9.2-9.44 2.928-13.712-5.056-19.904-8.448a33.056 33.056 0 0 0-9.2-3.936c-15.024-2.912-24.432-13.216-32.528-24.88-2.944-4.272 3.312-17.68 10.576-21.968 6.784-4 14.736-5.952 21.824-9.52 5.424-2.736 10.192-6.8 15.472-9.872 3.904-2.288 8.176-3.968 13.52-6.496v17.616l25.888 18.176c1.472-2.192 3.264-6.016 6.096-8.8 3.808-3.68 9.408-6.768 13.344-1.696 2.096 2.72 0.16 8.48 0.16 12.864z m-129.808 93.872v16.096h-7.232v-15.776l7.232-0.32z m26.304 15.84c-7.024 1.84-9.744-0.48-9.52-7.568 0.192-6.384 0.08-11.936 9.52-9.472v17.056z m26.528-0.032h-8.544c-2.768-14.128-1.6-16.304 8.544-15.136v15.136z m16.4 27.808c8.496 2.368 11.44 9.648 10.208 21.44-0.8 8.16-7.136 11.328-13.76 13.92-1.424 0.336-2.88 0.48-4.32 0.48 0.192 2.576 0.192 5.168 0 7.76-1.04 6.176-3.68 10.288-11.168 10.128-17.84-0.352-35.68-0.112-53.52-0.112-9.12 0-12.4-2.528-12.608-11.84-0.4-18.368-0.096-36.768-0.096-55.168 0-5.36 2.56-7.376 8.144-7.296 20.032 0.256 40.064 0.192 60.096 0 6.64-0.064 9.936 2.912 9.168 9.264-0.784 6.352 1.088 9.552 7.84 11.424z m-212 9.776c-0.976-16.624 13.44-30.336 29.952-30.368 17.856-0.08 30.896 13.024 30.816 30.512-0.096 17.488-13.296 30.896-30.08 30.176-19.312-0.848-29.68-13.024-30.688-30.32z m6.512-290.656c-10.208-11.936-6.72-26.112-5.968-39.808 0.352-2.16 0.928-4.288 1.68-6.352h56.32c4.368 16.608 8.048 33.056-4.512 47.696-4.72 5.216-9.92 10-15.52 14.288-6.72 5.488-5.904 15.632 1.92 19.008 4.304 1.632 8.304 3.984 11.808 6.96h-42.128l-0.512-1.216c3.344-1.824 6.848-3.456 10.016-5.552 2.384-1.584 5.952-3.584 6.192-5.712 0.576-5.072 1.856-10.576-3.952-14.752a90.24 90.24 0 0 1-15.36-14.56z m-120.672 137.104c5.712 21.344 5.6 21.392-15.424 27.52-1.184 0.336-2.4 0.576-4.96 1.184l6.032-14.32H469.12c2.56-13.28 0.048-27.504 11.968-37.808 1.44 1.872 2.64 3.92 3.568 6.096 2.208 7.328 7.344 10.512 14.432 12.08a8.672 8.672 0 0 1 5.36 5.248zM263.2 567.648c5.952-7.84 13.248-7.536 18.512 1.024 4.448 7.312 7.744 14.96 3.008 23.584-8.896 16.224-8.224 33.952-7.392 52-6.096 2.368-6.768-0.32-6.88-4.688-0.368-11.424-1.04-22.848-1.696-34.272a21.696 21.696 0 0 0-1.504-4.544c-9.92 6.48-10.928 16.752-13.12 26.08-3.2 13.6-6.688 18.032-21.12 18.224a122.4 122.4 0 0 1-26.352-3.168c-4.416-0.928-8.368-4.16-13.056-6.64 7.36-11.856 19.52-11.936 29.328-16.16 2.88-1.264 6.544-0.816 9.424-1.984 2.88-1.168 6.4-2.848 7.712-5.344 6.08-11.68 11.392-23.648 17.216-35.472 1.696-3.072 3.68-5.952 5.92-8.64z m150.176 180.224c-7.456 0.32-14.864 0.096-22.4 0.224 5.168-31.28 30.944-46.944 57.456-45.248 20.96 1.44 38.048 17.216 45.392 43.68-8.16 0.896-16.464 2.256-24.8 2.464-4.096 0.096-8.192-2.272-12.368-2.992-5.712-0.992-8.592 1.088-8.288 7.568 0.432 9.52-0.144 19.136 0.176 28.736 0.32 7.712-3.536 11.84-10.128 14.848-7.104 3.248-13.6 1.472-19.04-2.592-5.472-4.048-6.608-10.56-5.184-16.896a7.456 7.456 0 0 1 5.52-4.64c1.936 0.064 3.968 2.896 5.648 4.784 2.144 2.432 3.984 4.976 5.936 7.504 1.456-2.48 3.904-4.928 4.176-7.536 1.072-10.24 1.44-20.496 2.176-32.208-8.912 0.88-16.576 1.92-24.272 2.304z m-196.16-390.032c-4.08-1.488-9.376-2.16-11.728-5.008-1.984-2.528-1.92-8.384-0.384-11.68 4.784-10.192 10.752-19.84 16.144-29.776a12.4 12.4 0 0 0 1.936-5.808c-0.368-11.744-1.072-23.472-1.68-35.216l3.264-2.016c2.192 1.776 4.304 3.6 6.56 5.28 3.2 2.464 6.816 6.848 9.952 6.56 3.152-0.32 9.504-0.496 9.792-7.264 0.048-1.216 4.048-3.296 5.552-3.088 1.504 0.208 3.056 3.232 3.616 5.28 0.704 2.912 0.992 5.904 0.88 8.896-0.048 5.024 0.752 10.496-0.944 14.944-2.736 7.152-0.384 12.672 2.992 18.352 4.528 7.696 9.92 14.864 13.52 22.912 1.712 4.352 1.6 9.232-0.288 13.52-1.28 2.496-7.104 2.704-10.912 3.84-0.384 0.112-1.2-0.704-1.376-0.576-7.92 6.912-17.152 3.648-26.08 3.856-5.92 0.144-11.68 2.72-16.64-2.688-0.704-0.736-2.88 0.144-4.16-0.32z m-53.136 143.936c-13.184-0.048-18.864-5.712-18.976-18.656-0.064-11.392-0.96-23.04 5.376-33.168 6.48-10.4 16.752-17.68 24.928-26.672 9.408-10.4 25.072-4.064 30.72 9.456 0.768 1.792 2.08 4.16 3.648 4.656 15.28 4.976 15.232 18.624 17.712 30.784 0.96 4.768 1.52 9.6 1.696 14.464 0.544 13.328-4.96 19.04-18.192 19.136h-46.912z m394.72-34.496c0.048 1.968-2.096 5.312-3.84 5.76-6.928 1.872-14.112 2.784-22.912 4.48l4.208-29.424 20.592-4.272c0.768 8.416 1.76 15.92 1.952 23.456z m-130.048 121.12c0 14.272-0.128 28.56 0 42.912 0.08 7.52-3.264 10.88-10.8 10.768-12.352-0.128-24.704 0-37.056 0-12.352 0-24.704-0.224-37.056 0-6.72 0.112-9.28-2.768-9.2-9.36 0.24-15.648 0.272-31.296 0-46.944-0.112-6.96 2.544-10.304 9.616-9.728 7.088 0.576 13.728 0.048 17.104-7.648 0.096-0.224 0.4-0.368 0.592-0.56 5.392-5.584 35.584-4.16 41.232 1.168 3.296 2.912 7.44 4.688 11.84 5.072 10.944 0.8 13.728 3.168 13.728 14.32z m377.76-323.776c-16.992-0.784-21.76 2.64-21.28 15.68 15.184 1.312 20.032-2.4 21.28-15.68z m-176.64 371.68c12.784 7.424 25.104 8.48 38 1.84-3.68 6.176 1.504 17.072-8.912 18.448-22.72 2.96-23.072 2.24-29.104-20.272z m37.856-60.72c-12.672-6.096-24.832-6.72-36.96 0.832l-1.008-1.696c1.84-5.472 2.368-14.48 5.76-15.616 7.264-2.512 16.256-2.272 24.16-0.928 9.328 1.6 5.584 11.04 8.048 17.408z m-87.6 147.104c-7.68 0-15.36 0.144-22.976-0.192-2.112-0.096-4.128-1.92-6.192-2.976 1.072-1.92 2.368-3.68 3.84-5.28 7.232-6.256 14.432-12.528 22.16-18.08 1.632-1.168 5.648 0.128 8.16 1.312 2.528 1.184 4.384 3.744 6.672 5.44 5.792 4.512 12.576 8.096 17.248 13.52 3.888 4.544-2.208 5.872-5.072 6.064-7.904 0.528-15.872 0.192-23.84 0.192z m-31.04 57.6c0.064-15.312 0.16-30.688-0.128-46.16-0.08-5.12 2.048-6.768 6.88-6.624 7.952 0.16 15.92 0 23.888 0 7.68 0 15.392 0.272 23.056 0 5.264-0.208 7.408 1.584 7.328 7.056-0.224 15.104-0.16 30.208 0 45.296 0.064 6.304-2.752 8.784-8.944 8.784-14.56-0.16-29.104-0.128-43.648 0-5.76 0.096-8.448-2.496-8.448-8.352z" fill="#d81e06" p-id="5808"></path></svg>